# xmcd
#
# Track frame offsets:
#	150
#	14403
#	25503
#	41760
#	54827
#	70790
#	81575
#	105620
#	122864
#	137309
#	151663
#	166331
#
# Disc length: 2368 seconds
#
# Revision: 2
# Processed by: cddbd v1.5.2PL0 Copyright (c) Steve Scherf et al.
# Submitted via: audiograbber 1.83.01
#
DISCID=8d093e0c
DTITLE=Phil Pritchett - Blueprint Garage Volume 1
DYEAR=2007
DGENRE=Country
TTITLE0=A Wind From The Cold North Blew
TTITLE1=Woman Makes The World Go Around
TTITLE2=Talk Me Out Of Loving You
TTITLE3=Blood Warm Rain
TTITLE4=High Tide In The Heartland
TTITLE5=Mt. Enterprise
TTITLE6=The Load
TTITLE7=Song Of The Doorman
TTITLE8=January 21
TTITLE9=She Don't Even Know The Real Me
TTITLE10=Time Equals Distance
TTITLE11=Matchbook
EXTD=
EXTT0=
EXTT1=
EXTT2=
EXTT3=
EXTT4=
EXTT5=
EXTT6=
EXTT7=
EXTT8=
EXTT9=
EXTT10=
EXTT11=
PLAYORDER=
